<?xml version="1.0" encoding="UTF-8" standalone="no"?>
<!DOCTYPE svg PUBLIC "-//W3C//DTD SVG 1.1//EN"
 "http://www.w3.org/Graphics/SVG/1.1/DTD/svg11.dtd">
<!-- Generated by graphviz version 2.43.0 (0)
 -->
<!-- Title: Tree Pages: 1 -->
<svg width="1437pt" height="460pt"
 viewBox="0.00 0.00 1436.50 460.00" xmlns="http://www.w3.org/2000/svg" xmlns:xlink="http://www.w3.org/1999/xlink">
<g id="graph0" class="graph" transform="scale(1 1) rotate(0) translate(4 456)">
<title>Tree</title>
<polygon fill="white" stroke="transparent" points="-4,4 -4,-456 1432.5,-456 1432.5,4 -4,4"/>
<!-- 0 -->
<g id="node1" class="node">
<title>0</title>
<polygon fill="#fefaf7" stroke="black" points="690,-452 538,-452 538,-384 690,-384 690,-452"/>
<text text-anchor="middle" x="614" y="-436.8" font-family="Times,serif" font-size="14.00">qlm &lt;= 5.89e&#45;05</text>
<text text-anchor="middle" x="614" y="-421.8" font-family="Times,serif" font-size="14.00">mse = 0.0115004</text>
<text text-anchor="middle" x="614" y="-406.8" font-family="Times,serif" font-size="14.00">samples = 28800</text>
<text text-anchor="middle" x="614" y="-391.8" font-family="Times,serif" font-size="14.00">value = 0.0353703</text>
</g>
<!-- 1 -->
<g id="node2" class="node">
<title>1</title>
<polygon fill="#fffdfc" stroke="black" points="596,-348 444,-348 444,-280 596,-280 596,-348"/>
<text text-anchor="middle" x="520" y="-332.8" font-family="Times,serif" font-size="14.00">qlm &lt;= 2.29e&#45;05</text>
<text text-anchor="middle" x="520" y="-317.8" font-family="Times,serif" font-size="14.00">mse = 0.0017719</text>
<text text-anchor="middle" x="520" y="-302.8" font-family="Times,serif" font-size="14.00">samples = 27180</text>
<text text-anchor="middle" x="520" y="-287.8" font-family="Times,serif" font-size="14.00">value = 0.0138722</text>
</g>
<!-- 0&#45;&gt;1 -->
<g id="edge1" class="edge">
<title>0&#45;&gt;1</title>
<path fill="none" stroke="black" d="M583.48,-383.88C575.19,-374.89 566.12,-365.04 557.49,-355.68"/>
<polygon fill="black" stroke="black" points="560.04,-353.28 550.69,-348.3 554.89,-358.02 560.04,-353.28"/>
<text text-anchor="middle" x="549.67" y="-369.58" font-family="Times,serif" font-size="14.00">True</text>
</g>
<!-- 832 -->
<g id="node17" class="node">
<title>832</title>
<polygon fill="#f4c9ab" stroke="black" points="962,-348 818,-348 818,-280 962,-280 962,-348"/>
<text text-anchor="middle" x="890" y="-332.8" font-family="Times,serif" font-size="14.00">qlm &lt;= 0.000127</text>
<text text-anchor="middle" x="890" y="-317.8" font-family="Times,serif" font-size="14.00">mse = 0.0368697</text>
<text text-anchor="middle" x="890" y="-302.8" font-family="Times,serif" font-size="14.00">samples = 1620</text>
<text text-anchor="middle" x="890" y="-287.8" font-family="Times,serif" font-size="14.00">value = 0.396062</text>
</g>
<!-- 0&#45;&gt;832 -->
<g id="edge16" class="edge">
<title>0&#45;&gt;832</title>
<path fill="none" stroke="black" d="M690.15,-388.86C726.77,-375.33 770.71,-359.09 808.05,-345.28"/>
<polygon fill="black" stroke="black" points="809.73,-348.4 817.9,-341.65 807.3,-341.83 809.73,-348.4"/>
<text text-anchor="middle" x="807.44" y="-360.66" font-family="Times,serif" font-size="14.00">False</text>
</g>
<!-- 2 -->
<g id="node3" class="node">
<title>2</title>
<polygon fill="#fffefe" stroke="black" points="329.5,-244 174.5,-244 174.5,-176 329.5,-176 329.5,-244"/>
<text text-anchor="middle" x="252" y="-228.8" font-family="Times,serif" font-size="14.00">qtm &lt;= 0.0012727</text>
<text text-anchor="middle" x="252" y="-213.8" font-family="Times,serif" font-size="14.00">mse = 0.000441</text>
<text text-anchor="middle" x="252" y="-198.8" font-family="Times,serif" font-size="14.00">samples = 25527</text>
<text text-anchor="middle" x="252" y="-183.8" font-family="Times,serif" font-size="14.00">value = 0.0061941</text>
</g>
<!-- 1&#45;&gt;2 -->
<g id="edge2" class="edge">
<title>1&#45;&gt;2</title>
<path fill="none" stroke="black" d="M443.92,-284.04C411.24,-271.61 372.88,-257.01 339.07,-244.14"/>
<polygon fill="black" stroke="black" points="340.26,-240.85 329.67,-240.56 337.77,-247.39 340.26,-240.85"/>
</g>
<!-- 449 -->
<g id="node10" class="node">
<title>449</title>
<polygon fill="#fbede3" stroke="black" points="612.5,-244 427.5,-244 427.5,-176 612.5,-176 612.5,-244"/>
<text text-anchor="middle" x="520" y="-228.8" font-family="Times,serif" font-size="14.00">pm &lt;= 88168.2421875</text>
<text text-anchor="middle" x="520" y="-213.8" font-family="Times,serif" font-size="14.00">mse = 0.0073554</text>
<text text-anchor="middle" x="520" y="-198.8" font-family="Times,serif" font-size="14.00">samples = 1653</text>
<text text-anchor="middle" x="520" y="-183.8" font-family="Times,serif" font-size="14.00">value = 0.1324425</text>
</g>
<!-- 1&#45;&gt;449 -->
<g id="edge9" class="edge">
<title>1&#45;&gt;449</title>
<path fill="none" stroke="black" d="M520,-279.88C520,-271.78 520,-262.98 520,-254.47"/>
<polygon fill="black" stroke="black" points="523.5,-254.3 520,-244.3 516.5,-254.3 523.5,-254.3"/>
</g>
<!-- 3 -->
<g id="node4" class="node">
<title>3</title>
<polygon fill="#ffffff" stroke="black" points="152,-140 0,-140 0,-72 152,-72 152,-140"/>
<text text-anchor="middle" x="76" y="-124.8" font-family="Times,serif" font-size="14.00">qlm &lt;= 4.7e&#45;06</text>
<text text-anchor="middle" x="76" y="-109.8" font-family="Times,serif" font-size="14.00">mse = 2.49e&#45;05</text>
<text text-anchor="middle" x="76" y="-94.8" font-family="Times,serif" font-size="14.00">samples = 16562</text>
<text text-anchor="middle" x="76" y="-79.8" font-family="Times,serif" font-size="14.00">value = 0.0005588</text>
</g>
<!-- 2&#45;&gt;3 -->
<g id="edge3" class="edge">
<title>2&#45;&gt;3</title>
<path fill="none" stroke="black" d="M194.86,-175.88C178.02,-166.12 159.46,-155.37 142.1,-145.31"/>
<polygon fill="black" stroke="black" points="143.56,-142.11 133.16,-140.12 140.05,-148.17 143.56,-142.11"/>
</g>
<!-- 214 -->
<g id="node7" class="node">
<title>214</title>
<polygon fill="#fffdfb" stroke="black" points="334,-140 170,-140 170,-72 334,-72 334,-140"/>
<text text-anchor="middle" x="252" y="-124.8" font-family="Times,serif" font-size="14.00">tm &lt;= 286.5573273</text>
<text text-anchor="middle" x="252" y="-109.8" font-family="Times,serif" font-size="14.00">mse = 0.0010427</text>
<text text-anchor="middle" x="252" y="-94.8" font-family="Times,serif" font-size="14.00">samples = 8965</text>
<text text-anchor="middle" x="252" y="-79.8" font-family="Times,serif" font-size="14.00">value = 0.0166048</text>
</g>
<!-- 2&#45;&gt;214 -->
<g id="edge6" class="edge">
<title>2&#45;&gt;214</title>
<path fill="none" stroke="black" d="M252,-175.88C252,-167.78 252,-158.98 252,-150.47"/>
<polygon fill="black" stroke="black" points="255.5,-150.3 252,-140.3 248.5,-150.3 255.5,-150.3"/>
</g>
<!-- 4 -->
<g id="node5" class="node">
<title>4</title>
<polygon fill="#c0c0c0" stroke="black" points="67,-36 13,-36 13,0 67,0 67,-36"/>
<text text-anchor="middle" x="40" y="-14.3" font-family="Times,serif" font-size="14.00">(...)</text>
</g>
<!-- 3&#45;&gt;4 -->
<g id="edge4" class="edge">
<title>3&#45;&gt;4</title>
<path fill="none" stroke="black" d="M62.18,-72C58.54,-63.28 54.64,-53.98 51.16,-45.65"/>
<polygon fill="black" stroke="black" points="54.38,-44.28 47.29,-36.4 47.92,-46.98 54.38,-44.28"/>
</g>
<!-- 119 -->
<g id="node6" class="node">
<title>119</title>
<polygon fill="#c0c0c0" stroke="black" points="139,-36 85,-36 85,0 139,0 139,-36"/>
<text text-anchor="middle" x="112" y="-14.3" font-family="Times,serif" font-size="14.00">(...)</text>
</g>
<!-- 3&#45;&gt;119 -->
<g id="edge5" class="edge">
<title>3&#45;&gt;119</title>
<path fill="none" stroke="black" d="M89.82,-72C93.46,-63.28 97.36,-53.98 100.84,-45.65"/>
<polygon fill="black" stroke="black" points="104.08,-46.98 104.71,-36.4 97.62,-44.28 104.08,-46.98"/>
</g>
<!-- 215 -->
<g id="node8" class="node">
<title>215</title>
<polygon fill="#c0c0c0" stroke="black" points="247,-36 193,-36 193,0 247,0 247,-36"/>
<text text-anchor="middle" x="220" y="-14.3" font-family="Times,serif" font-size="14.00">(...)</text>
</g>
<!-- 214&#45;&gt;215 -->
<g id="edge7" class="edge">
<title>214&#45;&gt;215</title>
<path fill="none" stroke="black" d="M239.72,-72C236.51,-63.38 233.09,-54.19 230.02,-45.92"/>
<polygon fill="black" stroke="black" points="233.24,-44.56 226.48,-36.4 226.68,-47 233.24,-44.56"/>
</g>
<!-- 338 -->
<g id="node9" class="node">
<title>338</title>
<polygon fill="#c0c0c0" stroke="black" points="319,-36 265,-36 265,0 319,0 319,-36"/>
<text text-anchor="middle" x="292" y="-14.3" font-family="Times,serif" font-size="14.00">(...)</text>
</g>
<!-- 214&#45;&gt;338 -->
<g id="edge8" class="edge">
<title>214&#45;&gt;338</title>
<path fill="none" stroke="black" d="M267.35,-72C271.4,-63.28 275.73,-53.98 279.6,-45.65"/>
<polygon fill="black" stroke="black" points="282.86,-46.95 283.91,-36.4 276.51,-43.99 282.86,-46.95"/>
</g>
<!-- 450 -->
<g id="node11" class="node">
<title>450</title>
<polygon fill="#fcefe5" stroke="black" points="504,-140 352,-140 352,-72 504,-72 504,-140"/>
<text text-anchor="middle" x="428" y="-124.8" font-family="Times,serif" font-size="14.00">qsm &lt;= 0.004439</text>
<text text-anchor="middle" x="428" y="-109.8" font-family="Times,serif" font-size="14.00">mse = 0.0061159</text>
<text text-anchor="middle" x="428" y="-94.8" font-family="Times,serif" font-size="14.00">samples = 1488</text>
<text text-anchor="middle" x="428" y="-79.8" font-family="Times,serif" font-size="14.00">value = 0.1209997</text>
</g>
<!-- 449&#45;&gt;450 -->
<g id="edge10" class="edge">
<title>449&#45;&gt;450</title>
<path fill="none" stroke="black" d="M490.13,-175.88C482.1,-166.98 473.31,-157.24 464.94,-147.96"/>
<polygon fill="black" stroke="black" points="467.33,-145.38 458.03,-140.3 462.13,-150.07 467.33,-145.38"/>
</g>
<!-- 681 -->
<g id="node14" class="node">
<title>681</title>
<polygon fill="#f8dfcd" stroke="black" points="678,-140 522,-140 522,-72 678,-72 678,-140"/>
<text text-anchor="middle" x="600" y="-124.8" font-family="Times,serif" font-size="14.00">qsm &lt;= 0.0084737</text>
<text text-anchor="middle" x="600" y="-109.8" font-family="Times,serif" font-size="14.00">mse = 0.0067033</text>
<text text-anchor="middle" x="600" y="-94.8" font-family="Times,serif" font-size="14.00">samples = 165</text>
<text text-anchor="middle" x="600" y="-79.8" font-family="Times,serif" font-size="14.00">value = 0.2356361</text>
</g>
<!-- 449&#45;&gt;681 -->
<g id="edge13" class="edge">
<title>449&#45;&gt;681</title>
<path fill="none" stroke="black" d="M545.97,-175.88C552.89,-167.07 560.45,-157.43 567.66,-148.24"/>
<polygon fill="black" stroke="black" points="570.47,-150.33 573.88,-140.3 564.96,-146.01 570.47,-150.33"/>
</g>
<!-- 451 -->
<g id="node12" class="node">
<title>451</title>
<polygon fill="#c0c0c0" stroke="black" points="419,-36 365,-36 365,0 419,0 419,-36"/>
<text text-anchor="middle" x="392" y="-14.3" font-family="Times,serif" font-size="14.00">(...)</text>
</g>
<!-- 450&#45;&gt;451 -->
<g id="edge11" class="edge">
<title>450&#45;&gt;451</title>
<path fill="none" stroke="black" d="M414.18,-72C410.54,-63.28 406.64,-53.98 403.16,-45.65"/>
<polygon fill="black" stroke="black" points="406.38,-44.28 399.29,-36.4 399.92,-46.98 406.38,-44.28"/>
</g>
<!-- 562 -->
<g id="node13" class="node">
<title>562</title>
<polygon fill="#c0c0c0" stroke="black" points="491,-36 437,-36 437,0 491,0 491,-36"/>
<text text-anchor="middle" x="464" y="-14.3" font-family="Times,serif" font-size="14.00">(...)</text>
</g>
<!-- 450&#45;&gt;562 -->
<g id="edge12" class="edge">
<title>450&#45;&gt;562</title>
<path fill="none" stroke="black" d="M441.82,-72C445.46,-63.28 449.36,-53.98 452.84,-45.65"/>
<polygon fill="black" stroke="black" points="456.08,-46.98 456.71,-36.4 449.62,-44.28 456.08,-46.98"/>
</g>
<!-- 682 -->
<g id="node15" class="node">
<title>682</title>
<polygon fill="#c0c0c0" stroke="black" points="577,-36 523,-36 523,0 577,0 577,-36"/>
<text text-anchor="middle" x="550" y="-14.3" font-family="Times,serif" font-size="14.00">(...)</text>
</g>
<!-- 681&#45;&gt;682 -->
<g id="edge14" class="edge">
<title>681&#45;&gt;682</title>
<path fill="none" stroke="black" d="M580.81,-72C575.63,-63.09 570.1,-53.58 565.18,-45.11"/>
<polygon fill="black" stroke="black" points="568.17,-43.29 560.12,-36.4 562.12,-46.81 568.17,-43.29"/>
</g>
<!-- 743 -->
<g id="node16" class="node">
<title>743</title>
<polygon fill="#c0c0c0" stroke="black" points="649,-36 595,-36 595,0 649,0 649,-36"/>
<text text-anchor="middle" x="622" y="-14.3" font-family="Times,serif" font-size="14.00">(...)</text>
</g>
<!-- 681&#45;&gt;743 -->
<g id="edge15" class="edge">
<title>681&#45;&gt;743</title>
<path fill="none" stroke="black" d="M608.44,-72C610.62,-63.47 612.95,-54.39 615.04,-46.2"/>
<polygon fill="black" stroke="black" points="618.46,-46.96 617.55,-36.4 611.68,-45.22 618.46,-46.96"/>
</g>
<!-- 833 -->
<g id="node18" class="node">
<title>833</title>
<polygon fill="#f7d7c0" stroke="black" points="961.5,-244 818.5,-244 818.5,-176 961.5,-176 961.5,-244"/>
<text text-anchor="middle" x="890" y="-228.8" font-family="Times,serif" font-size="14.00">qlm &lt;= 8.47e&#45;05</text>
<text text-anchor="middle" x="890" y="-213.8" font-family="Times,serif" font-size="14.00">mse = 0.0170766</text>
<text text-anchor="middle" x="890" y="-198.8" font-family="Times,serif" font-size="14.00">samples = 985</text>
<text text-anchor="middle" x="890" y="-183.8" font-family="Times,serif" font-size="14.00">value = 0.295425</text>
</g>
<!-- 832&#45;&gt;833 -->
<g id="edge17" class="edge">
<title>832&#45;&gt;833</title>
<path fill="none" stroke="black" d="M890,-279.88C890,-271.78 890,-262.98 890,-254.47"/>
<polygon fill="black" stroke="black" points="893.5,-254.3 890,-244.3 886.5,-254.3 893.5,-254.3"/>
</g>
<!-- 1172 -->
<g id="node25" class="node">
<title>1172</title>
<polygon fill="#f0b489" stroke="black" points="1256.5,-244 1103.5,-244 1103.5,-176 1256.5,-176 1256.5,-244"/>
<text text-anchor="middle" x="1180" y="-228.8" font-family="Times,serif" font-size="14.00">qlm &lt;= 0.0002199</text>
<text text-anchor="middle" x="1180" y="-213.8" font-family="Times,serif" font-size="14.00">mse = 0.0274931</text>
<text text-anchor="middle" x="1180" y="-198.8" font-family="Times,serif" font-size="14.00">samples = 635</text>
<text text-anchor="middle" x="1180" y="-183.8" font-family="Times,serif" font-size="14.00">value = 0.5521682</text>
</g>
<!-- 832&#45;&gt;1172 -->
<g id="edge24" class="edge">
<title>832&#45;&gt;1172</title>
<path fill="none" stroke="black" d="M962.06,-287.66C1001.98,-273.62 1051.87,-256.07 1093.84,-241.31"/>
<polygon fill="black" stroke="black" points="1095.22,-244.53 1103.49,-237.91 1092.9,-237.93 1095.22,-244.53"/>
</g>
<!-- 834 -->
<g id="node19" class="node">
<title>834</title>
<polygon fill="#f8ddca" stroke="black" points="881.5,-140 696.5,-140 696.5,-72 881.5,-72 881.5,-140"/>
<text text-anchor="middle" x="789" y="-124.8" font-family="Times,serif" font-size="14.00">pm &lt;= 91200.7460938</text>
<text text-anchor="middle" x="789" y="-109.8" font-family="Times,serif" font-size="14.00">mse = 0.014041</text>
<text text-anchor="middle" x="789" y="-94.8" font-family="Times,serif" font-size="14.00">samples = 538</text>
<text text-anchor="middle" x="789" y="-79.8" font-family="Times,serif" font-size="14.00">value = 0.2506622</text>
</g>
<!-- 833&#45;&gt;834 -->
<g id="edge18" class="edge">
<title>833&#45;&gt;834</title>
<path fill="none" stroke="black" d="M857.21,-175.88C848.3,-166.89 838.55,-157.04 829.28,-147.68"/>
<polygon fill="black" stroke="black" points="831.5,-144.94 821.97,-140.3 826.52,-149.87 831.5,-144.94"/>
</g>
<!-- 1001 -->
<g id="node22" class="node">
<title>1001</title>
<polygon fill="#f5d0b5" stroke="black" points="1084.5,-140 899.5,-140 899.5,-72 1084.5,-72 1084.5,-140"/>
<text text-anchor="middle" x="992" y="-124.8" font-family="Times,serif" font-size="14.00">pm &lt;= 90237.1835938</text>
<text text-anchor="middle" x="992" y="-109.8" font-family="Times,serif" font-size="14.00">mse = 0.0154159</text>
<text text-anchor="middle" x="992" y="-94.8" font-family="Times,serif" font-size="14.00">samples = 447</text>
<text text-anchor="middle" x="992" y="-79.8" font-family="Times,serif" font-size="14.00">value = 0.3493005</text>
</g>
<!-- 833&#45;&gt;1001 -->
<g id="edge21" class="edge">
<title>833&#45;&gt;1001</title>
<path fill="none" stroke="black" d="M923.12,-175.88C932.2,-166.8 942.15,-156.85 951.6,-147.4"/>
<polygon fill="black" stroke="black" points="954.1,-149.85 958.7,-140.3 949.15,-144.9 954.1,-149.85"/>
</g>
<!-- 835 -->
<g id="node20" class="node">
<title>835</title>
<polygon fill="#c0c0c0" stroke="black" points="773,-36 719,-36 719,0 773,0 773,-36"/>
<text text-anchor="middle" x="746" y="-14.3" font-family="Times,serif" font-size="14.00">(...)</text>
</g>
<!-- 834&#45;&gt;835 -->
<g id="edge19" class="edge">
<title>834&#45;&gt;835</title>
<path fill="none" stroke="black" d="M772.5,-72C768.09,-63.19 763.39,-53.78 759.19,-45.38"/>
<polygon fill="black" stroke="black" points="762.3,-43.78 754.7,-36.4 756.04,-46.91 762.3,-43.78"/>
</g>
<!-- 956 -->
<g id="node21" class="node">
<title>956</title>
<polygon fill="#c0c0c0" stroke="black" points="845,-36 791,-36 791,0 845,0 845,-36"/>
<text text-anchor="middle" x="818" y="-14.3" font-family="Times,serif" font-size="14.00">(...)</text>
</g>
<!-- 834&#45;&gt;956 -->
<g id="edge20" class="edge">
<title>834&#45;&gt;956</title>
<path fill="none" stroke="black" d="M800.13,-72C803.04,-63.38 806.13,-54.19 808.92,-45.92"/>
<polygon fill="black" stroke="black" points="812.25,-47 812.13,-36.4 805.62,-44.76 812.25,-47"/>
</g>
<!-- 1002 -->
<g id="node23" class="node">
<title>1002</title>
<polygon fill="#c0c0c0" stroke="black" points="969,-36 915,-36 915,0 969,0 969,-36"/>
<text text-anchor="middle" x="942" y="-14.3" font-family="Times,serif" font-size="14.00">(...)</text>
</g>
<!-- 1001&#45;&gt;1002 -->
<g id="edge22" class="edge">
<title>1001&#45;&gt;1002</title>
<path fill="none" stroke="black" d="M972.81,-72C967.63,-63.09 962.1,-53.58 957.18,-45.11"/>
<polygon fill="black" stroke="black" points="960.17,-43.29 952.12,-36.4 954.12,-46.81 960.17,-43.29"/>
</g>
<!-- 1115 -->
<g id="node24" class="node">
<title>1115</title>
<polygon fill="#c0c0c0" stroke="black" points="1041,-36 987,-36 987,0 1041,0 1041,-36"/>
<text text-anchor="middle" x="1014" y="-14.3" font-family="Times,serif" font-size="14.00">(...)</text>
</g>
<!-- 1001&#45;&gt;1115 -->
<g id="edge23" class="edge">
<title>1001&#45;&gt;1115</title>
<path fill="none" stroke="black" d="M1000.44,-72C1002.62,-63.47 1004.95,-54.39 1007.04,-46.2"/>
<polygon fill="black" stroke="black" points="1010.46,-46.96 1009.55,-36.4 1003.68,-45.22 1010.46,-46.96"/>
</g>
<!-- 1173 -->
<g id="node26" class="node">
<title>1173</title>
<polygon fill="#f1bc95" stroke="black" points="1257.5,-140 1102.5,-140 1102.5,-72 1257.5,-72 1257.5,-140"/>
<text text-anchor="middle" x="1180" y="-124.8" font-family="Times,serif" font-size="14.00">qtm &lt;= 0.0043112</text>
<text text-anchor="middle" x="1180" y="-109.8" font-family="Times,serif" font-size="14.00">mse = 0.0203493</text>
<text text-anchor="middle" x="1180" y="-94.8" font-family="Times,serif" font-size="14.00">samples = 458</text>
<text text-anchor="middle" x="1180" y="-79.8" font-family="Times,serif" font-size="14.00">value = 0.4960697</text>
</g>
<!-- 1172&#45;&gt;1173 -->
<g id="edge25" class="edge">
<title>1172&#45;&gt;1173</title>
<path fill="none" stroke="black" d="M1180,-175.88C1180,-167.78 1180,-158.98 1180,-150.47"/>
<polygon fill="black" stroke="black" points="1183.5,-150.3 1180,-140.3 1176.5,-150.3 1183.5,-150.3"/>
</g>
<!-- 1368 -->
<g id="node29" class="node">
<title>1368</title>
<polygon fill="#eba06a" stroke="black" points="1428.5,-140 1275.5,-140 1275.5,-72 1428.5,-72 1428.5,-140"/>
<text text-anchor="middle" x="1352" y="-124.8" font-family="Times,serif" font-size="14.00">qlm &lt;= 0.0002766</text>
<text text-anchor="middle" x="1352" y="-109.8" font-family="Times,serif" font-size="14.00">mse = 0.0167641</text>
<text text-anchor="middle" x="1352" y="-94.8" font-family="Times,serif" font-size="14.00">samples = 177</text>
<text text-anchor="middle" x="1352" y="-79.8" font-family="Times,serif" font-size="14.00">value = 0.6973269</text>
</g>
<!-- 1172&#45;&gt;1368 -->
<g id="edge28" class="edge">
<title>1172&#45;&gt;1368</title>
<path fill="none" stroke="black" d="M1235.84,-175.88C1252.3,-166.12 1270.44,-155.37 1287.4,-145.31"/>
<polygon fill="black" stroke="black" points="1289.33,-148.24 1296.14,-140.12 1285.76,-142.22 1289.33,-148.24"/>
</g>
<!-- 1174 -->
<g id="node27" class="node">
<title>1174</title>
<polygon fill="#c0c0c0" stroke="black" points="1167,-36 1113,-36 1113,0 1167,0 1167,-36"/>
<text text-anchor="middle" x="1140" y="-14.3" font-family="Times,serif" font-size="14.00">(...)</text>
</g>
<!-- 1173&#45;&gt;1174 -->
<g id="edge26" class="edge">
<title>1173&#45;&gt;1174</title>
<path fill="none" stroke="black" d="M1164.65,-72C1160.6,-63.28 1156.27,-53.98 1152.4,-45.65"/>
<polygon fill="black" stroke="black" points="1155.49,-43.99 1148.09,-36.4 1149.14,-46.95 1155.49,-43.99"/>
</g>
<!-- 1269 -->
<g id="node28" class="node">
<title>1269</title>
<polygon fill="#c0c0c0" stroke="black" points="1239,-36 1185,-36 1185,0 1239,0 1239,-36"/>
<text text-anchor="middle" x="1212" y="-14.3" font-family="Times,serif" font-size="14.00">(...)</text>
</g>
<!-- 1173&#45;&gt;1269 -->
<g id="edge27" class="edge">
<title>1173&#45;&gt;1269</title>
<path fill="none" stroke="black" d="M1192.28,-72C1195.49,-63.38 1198.91,-54.19 1201.98,-45.92"/>
<polygon fill="black" stroke="black" points="1205.32,-47 1205.52,-36.4 1198.76,-44.56 1205.32,-47"/>
</g>
<!-- 1369 -->
<g id="node30" class="node">
<title>1369</title>
<polygon fill="#c0c0c0" stroke="black" points="1343,-36 1289,-36 1289,0 1343,0 1343,-36"/>
<text text-anchor="middle" x="1316" y="-14.3" font-family="Times,serif" font-size="14.00">(...)</text>
</g>
<!-- 1368&#45;&gt;1369 -->
<g id="edge29" class="edge">
<title>1368&#45;&gt;1369</title>
<path fill="none" stroke="black" d="M1338.18,-72C1334.54,-63.28 1330.64,-53.98 1327.16,-45.65"/>
<polygon fill="black" stroke="black" points="1330.38,-44.28 1323.29,-36.4 1323.92,-46.98 1330.38,-44.28"/>
</g>
<!-- 1452 -->
<g id="node31" class="node">
<title>1452</title>
<polygon fill="#c0c0c0" stroke="black" points="1415,-36 1361,-36 1361,0 1415,0 1415,-36"/>
<text text-anchor="middle" x="1388" y="-14.3" font-family="Times,serif" font-size="14.00">(...)</text>
</g>
<!-- 1368&#45;&gt;1452 -->
<g id="edge30" class="edge">
<title>1368&#45;&gt;1452</title>
<path fill="none" stroke="black" d="M1365.82,-72C1369.46,-63.28 1373.36,-53.98 1376.84,-45.65"/>
<polygon fill="black" stroke="black" points="1380.08,-46.98 1380.71,-36.4 1373.62,-44.28 1380.08,-46.98"/>
</g>
</g>
</svg>
